<svg width="16" height="15" viewBox="0 0 16 15" fill="none" xmlns="http://www.w3.org/2000/svg">
<g clip-path="url(#clip0_67_2299)">
<path d="M15.4127 0.544991C15.2043 0.350109 14.9524 0.200985 14.6752 0.108364C14.3979 0.0157432 14.1022 -0.0180682 13.8094 0.00936646C11.9474 0.178116 5.68536 0.904992 3.2667 3.16999C2.11054 4.25684 1.42496 5.70676 1.34234 7.23975C1.25973 8.77274 1.78594 10.2801 2.81936 11.4706L0.192695 13.9331C0.0712567 14.051 0.00406045 14.2089 0.0055794 14.3727C0.00709835 14.5366 0.077211 14.6934 0.200816 14.8093C0.324422 14.9251 0.49163 14.9909 0.666428 14.9923C0.841226 14.9937 1.00963 14.9307 1.13536 14.8169L3.76203 12.3544C5.0317 13.3245 6.63994 13.8188 8.27583 13.7418C9.91172 13.6648 11.4591 13.022 12.6187 11.9375C15.0694 9.63937 15.8187 3.78687 15.9914 2.04812C16.0196 1.77304 15.9823 1.49551 15.8823 1.23557C15.7822 0.975635 15.6218 0.739766 15.4127 0.544991ZM11.6794 11.0512C10.7704 11.9003 9.56284 12.4102 8.28222 12.4858C7.00159 12.5613 5.7354 12.1974 4.72003 11.4619L11.1414 5.44187C11.2628 5.32399 11.33 5.16611 11.3285 5.00224C11.327 4.83837 11.2568 4.68161 11.1332 4.56573C11.0096 4.44985 10.8424 4.38412 10.6676 4.3827C10.4928 4.38127 10.3244 4.44427 10.1987 4.55812L3.77403 10.5781C2.98935 9.62626 2.60105 8.43918 2.68165 7.23855C2.76225 6.03793 3.30624 4.90586 4.21203 4.05374C5.8847 2.48624 10.4967 1.56249 13.938 1.25312C14.0355 1.24422 14.1339 1.25557 14.2261 1.28635C14.3184 1.31713 14.4023 1.36659 14.4718 1.43121C14.5414 1.49583 14.5949 1.57402 14.6286 1.66023C14.6623 1.74643 14.6753 1.83854 14.6667 1.92999C14.3334 5.29687 13.3727 9.46062 11.676 11.0512H11.6794Z" fill="#6A6A6A"/>
</g>
<defs>
<clipPath id="clip0_67_2299">
<rect width="16" height="15" fill="white"/>
</clipPath>
</defs>
</svg>
