<svg width="15" height="15" viewBox="0 0 15 15" fill="none" xmlns="http://www.w3.org/2000/svg">
<path d="M8.33625 0.324854C8.10671 0.11572 7.80882 0 7.5 0C7.19118 0 6.89329 0.11572 6.66375 0.324854L0 6.39585V12.9755C0 13.5124 0.210714 14.0274 0.585786 14.407C0.960859 14.7867 1.46957 15 2 15H13C13.5304 15 14.0391 14.7867 14.4142 14.407C14.7893 14.0274 15 13.5124 15 12.9755V6.39585L8.33625 0.324854ZM9.375 13.7328H5.625V10.553C5.625 10.0497 5.82254 9.56691 6.17417 9.21097C6.52581 8.85503 7.00272 8.65507 7.5 8.65507C7.99728 8.65507 8.47419 8.85503 8.82583 9.21097C9.17746 9.56691 9.375 10.0497 9.375 10.553V13.7328ZM13.75 12.9736C13.75 13.1749 13.671 13.368 13.5303 13.5104C13.3897 13.6528 13.1989 13.7328 13 13.7328H10.625V10.553C10.625 9.71409 10.2958 8.90949 9.70971 8.31626C9.12366 7.72303 8.3288 7.38975 7.5 7.38975C6.6712 7.38975 5.87634 7.72303 5.29029 8.31626C4.70424 8.90949 4.375 9.71409 4.375 10.553V13.7328H2C1.80109 13.7328 1.61032 13.6528 1.46967 13.5104C1.32902 13.368 1.25 13.1749 1.25 12.9736V6.95891L7.5 1.26498L13.75 6.95891V12.9736Z" fill="#6A6A6A"/>
</svg>
