<svg width="16" height="15" viewBox="0 0 16 15" fill="none" xmlns="http://www.w3.org/2000/svg">
<path d="M15 6.875C15 5.895 14.53 4.975 13.75 4.38812V4.375C13.75 3.18937 12.9206 2.19438 11.8113 1.93875C11.5556 0.83 10.56 0 9.375 0C8.62875 0 7.95813 0.32875 7.5 0.848125C7.04188 0.328125 6.37125 0 5.625 0C4.44 0 3.44438 0.829375 3.18875 1.93875C2.08 2.19438 1.25 3.18937 1.25 4.375V4.38812C0.47 4.975 0 5.89437 0 6.875C0 7.42875 0.146875 7.96063 0.42875 8.4375C0.1475 8.91438 0 9.44625 0 10C0 11.0538 0.53625 12.0275 1.41688 12.6038C1.86625 14.0275 3.17438 15 4.6875 15C5.84875 15 6.8775 14.4213 7.5 13.5363C8.1225 14.4206 9.15125 15 10.3125 15C11.8263 15 13.1344 14.0275 13.5831 12.6038C14.4631 12.0275 15 11.0538 15 10C15 9.44625 14.8531 8.91438 14.5712 8.4375C14.8525 7.96063 15 7.42875 15 6.875ZM4.6875 13.75C3.66625 13.75 2.79188 13.0531 2.56188 12.055C2.52125 11.8794 2.40688 11.73 2.24813 11.645C1.6325 11.315 1.25 10.685 1.25 10.0006C1.25 9.57875 1.39625 9.17437 1.67437 8.83062C1.85937 8.60125 1.85937 8.27437 1.67437 8.045C1.39687 7.70188 1.25 7.2975 1.25 6.875C1.25 6.20625 1.61937 5.58313 2.21438 5.24813C2.44563 5.11813 2.56938 4.85625 2.52313 4.595C2.51063 4.52313 2.5 4.45062 2.5 4.375C2.5 3.68562 3.06063 3.125 3.75 3.125C4.09562 3.125 4.375 2.845 4.375 2.5C4.375 1.81062 4.93563 1.25 5.625 1.25C6.31438 1.25 6.875 1.81062 6.875 2.5V5H5.4575C5.24125 4.62625 4.8375 4.375 4.375 4.375C3.68437 4.375 3.125 4.93438 3.125 5.625C3.125 6.31563 3.68437 6.875 4.375 6.875C4.8375 6.875 5.24125 6.62375 5.4575 6.25H6.875V9.375H5.4575C5.24125 9.00125 4.8375 8.75 4.375 8.75C3.68437 8.75 3.125 9.30937 3.125 10C3.125 10.6906 3.68437 11.25 4.375 11.25C4.8375 11.25 5.24125 10.9987 5.4575 10.625H6.875V11.5625C6.875 12.7688 5.89375 13.75 4.6875 13.75ZM13.3256 8.83C13.6031 9.17313 13.75 9.5775 13.75 10C13.75 10.685 13.3681 11.315 12.7519 11.6444C12.5931 11.7294 12.4787 11.8788 12.4381 12.0544C12.2081 13.0525 11.3331 13.7494 10.3125 13.7494C9.10625 13.7494 8.125 12.7681 8.125 11.5619V8.74937H9.375C10.4088 8.74937 11.25 7.90812 11.25 6.87437V6.70687C11.6238 6.49062 11.875 6.08687 11.875 5.62437C11.875 4.93375 11.3156 4.37438 10.625 4.37438C9.93437 4.37438 9.375 4.93375 9.375 5.62437C9.375 6.08687 9.62625 6.49062 10 6.70687V6.87437C10 7.21875 9.72 7.49938 9.375 7.49938H8.125V2.5C8.125 1.81062 8.68563 1.25 9.375 1.25C10.0644 1.25 10.625 1.81062 10.625 2.5C10.625 2.845 10.9044 3.125 11.25 3.125C11.9394 3.125 12.5 3.68562 12.5 4.375C12.5 4.45062 12.4887 4.52313 12.4769 4.595C12.4306 4.85625 12.5544 5.11813 12.7856 5.24813C13.3806 5.5825 13.75 6.20625 13.75 6.875C13.75 7.29687 13.6037 7.70125 13.3256 8.045C13.1406 8.27437 13.1406 8.60063 13.3256 8.83Z" fill="#6D6D6D"/>
</svg>
