<svg width="15" height="14" viewBox="0 0 15 14" fill="none" xmlns="http://www.w3.org/2000/svg">
<g clip-path="url(#clip0_67_2309)">
<path d="M7.1725 8.75C7.00674 8.75 6.84777 8.81146 6.73056 8.92085C6.61335 9.03025 6.5475 9.17862 6.5475 9.33333V11.0833C6.5475 11.5475 6.34996 11.9926 5.99833 12.3208C5.6467 12.649 5.16978 12.8333 4.6725 12.8333H3.125C2.62772 12.8333 2.15081 12.649 1.79918 12.3208C1.44754 11.9926 1.25 11.5475 1.25 11.0833V2.91667C1.25 2.45254 1.44754 2.00742 1.79918 1.67923C2.15081 1.35104 2.62772 1.16667 3.125 1.16667H4.6725C5.16978 1.16667 5.6467 1.35104 5.99833 1.67923C6.34996 2.00742 6.5475 2.45254 6.5475 2.91667V4.66667C6.5475 4.82138 6.61335 4.96975 6.73056 5.07915C6.84777 5.18854 7.00674 5.25 7.1725 5.25C7.33826 5.25 7.49723 5.18854 7.61444 5.07915C7.73165 4.96975 7.7975 4.82138 7.7975 4.66667V2.91667C7.79651 2.1434 7.46695 1.40208 6.88111 0.855295C6.29528 0.308514 5.501 0.00092625 4.6725 0H3.125C2.2965 0.00092625 1.50222 0.308514 0.916387 0.855295C0.330551 1.40208 0.000992411 2.1434 0 2.91667L0 11.0833C0.000992411 11.8566 0.330551 12.5979 0.916387 13.1447C1.50222 13.6915 2.2965 13.9991 3.125 14H4.6725C5.501 13.9991 6.29528 13.6915 6.88111 13.1447C7.46695 12.5979 7.79651 11.8566 7.7975 11.0833V9.33333C7.7975 9.17862 7.73165 9.03025 7.61444 8.92085C7.49723 8.81146 7.33826 8.75 7.1725 8.75Z" fill="#6D6D6D"/>
<path d="M14.2919 5.7628L11.4256 3.08763C11.368 3.03192 11.299 2.98748 11.2228 2.9569C11.1465 2.92633 11.0645 2.91024 10.9815 2.90957C10.8985 2.90889 10.8162 2.92365 10.7394 2.95298C10.6626 2.98232 10.5928 3.02563 10.5341 3.0804C10.4754 3.13517 10.429 3.2003 10.3976 3.27199C10.3662 3.34368 10.3504 3.42049 10.3511 3.49795C10.3518 3.5754 10.3691 3.65195 10.4018 3.72312C10.4346 3.79429 10.4822 3.85865 10.5419 3.91246L13.2062 6.39921L3.75 6.41671C3.58424 6.41671 3.42527 6.47817 3.30806 6.58757C3.19085 6.69696 3.125 6.84534 3.125 7.00005C3.125 7.15476 3.19085 7.30313 3.30806 7.41253C3.42527 7.52192 3.58424 7.58338 3.75 7.58338L13.2425 7.56588L10.5406 10.0876C10.4809 10.1414 10.4333 10.2058 10.4006 10.277C10.3678 10.3481 10.3506 10.4247 10.3498 10.5021C10.3491 10.5796 10.3649 10.6564 10.3964 10.7281C10.4278 10.7998 10.4742 10.8649 10.5329 10.9197C10.5916 10.9745 10.6613 11.0178 10.7382 11.0471C10.815 11.0764 10.8973 11.0912 10.9803 11.0905C11.0632 11.0899 11.1453 11.0738 11.2215 11.0432C11.2978 11.0126 11.3667 10.9682 11.4244 10.9125L14.2906 8.2373C14.6423 7.90928 14.84 7.46433 14.8402 7.00029C14.8405 6.53625 14.6432 6.09113 14.2919 5.7628Z" fill="#6D6D6D"/>
</g>
<defs>
<clipPath id="clip0_67_2309">
<rect width="15" height="14" fill="white"/>
</clipPath>
</defs>
</svg>
