<svg width="15" height="15" viewBox="0 0 15 15" fill="none" xmlns="http://www.w3.org/2000/svg">
<g clip-path="url(#clip0_67_2306)">
<path d="M14.0625 2.48499H12.1338C12.0102 2.48501 11.8894 2.52168 11.7866 2.59036C11.6838 2.65904 11.6038 2.75664 11.5565 2.87083C11.5092 2.98501 11.4968 3.11066 11.5209 3.23188C11.545 3.3531 11.6045 3.46445 11.6919 3.55186L12.3706 4.23061L10.1294 6.47124C10.0103 6.58505 9.85192 6.64856 9.6872 6.64856C9.52248 6.64856 9.3641 6.58505 9.24501 6.47124L9.13876 6.36436C8.78165 6.02315 8.30674 5.83275 7.81282 5.83275C7.31891 5.83275 6.844 6.02315 6.48689 6.36436L3.29939 9.55186C3.18195 9.66963 3.1161 9.82924 3.11633 9.99556C3.11657 10.1619 3.18286 10.3213 3.30064 10.4387C3.41841 10.5562 3.57801 10.622 3.74433 10.6218C3.91065 10.6216 4.07007 10.5553 4.18751 10.4375L7.37501 7.24999C7.49402 7.13603 7.65243 7.07242 7.8172 7.07242C7.98197 7.07242 8.14038 7.13603 8.25939 7.24999L8.36564 7.35686C8.7229 7.69778 9.19775 7.88799 9.69157 7.88799C10.1854 7.88799 10.6602 7.69778 11.0175 7.35686L13.2588 5.11561L13.9375 5.79436C14.0252 5.88033 14.1363 5.93855 14.2569 5.96176C14.3775 5.98498 14.5023 5.97214 14.6156 5.92487C14.7289 5.8776 14.8259 5.79798 14.8942 5.69596C14.9626 5.59394 14.9994 5.47404 15 5.35124V3.42249C15 3.17384 14.9012 2.93539 14.7254 2.75957C14.5496 2.58376 14.3112 2.48499 14.0625 2.48499Z" fill="#6D6D6D"/>
<path d="M14.375 13.735H3.125C2.62772 13.735 2.15081 13.5375 1.79917 13.1858C1.44754 12.8342 1.25 12.3573 1.25 11.86V0.625C1.25 0.45924 1.18415 0.300269 1.06694 0.183058C0.949732 0.065848 0.79076 0 0.625 0C0.45924 0 0.300269 0.065848 0.183058 0.183058C0.065848 0.300269 0 0.45924 0 0.625L0 11.86C0.000992411 12.6885 0.330551 13.4828 0.916387 14.0686C1.50222 14.6545 2.2965 14.984 3.125 14.985H14.375C14.5408 14.985 14.6997 14.9192 14.8169 14.8019C14.9342 14.6847 15 14.5258 15 14.36C15 14.1942 14.9342 14.0353 14.8169 13.9181C14.6997 13.8008 14.5408 13.735 14.375 13.735Z" fill="#6D6D6D"/>
</g>
<defs>
<clipPath id="clip0_67_2306">
<rect width="15" height="15" fill="white"/>
</clipPath>
</defs>
</svg>
