<svg width="25" height="22" viewBox="0 0 25 22" fill="none" xmlns="http://www.w3.org/2000/svg">
<path d="M5.14639 0.104712C4.76852 0.332397 4.68617 0.782926 4.95746 1.1075C5.02043 1.18501 5.56785 1.54834 6.16855 1.92136C6.76926 2.29437 7.24885 2.60926 7.22463 2.62379C7.20525 2.64317 7.05023 2.70615 6.87583 2.76428C6.40593 2.92899 5.55331 3.33592 5.05919 3.63142C1.45012 5.80171 -0.516703 9.9582 0.117912 14.0808C0.239021 14.8656 0.311687 15.0787 0.500618 15.258C0.839726 15.5632 1.3823 15.4469 1.57123 15.0254C1.65843 14.8268 1.65843 14.8171 1.54216 14.1873C1.44043 13.6351 1.4259 13.4074 1.4259 12.4821C1.4259 11.2662 1.50341 10.7721 1.84251 9.72082C2.70481 7.08063 4.80728 4.94425 7.4184 4.05289C7.80595 3.92209 7.88346 3.90271 7.84955 3.97053C7.82533 4.01413 7.462 4.60999 7.04539 5.28821C6.21215 6.6301 6.15886 6.76574 6.31873 7.09516C6.47375 7.42458 6.92428 7.56991 7.25854 7.40036C7.4184 7.31316 7.37965 7.37129 8.66826 5.28821C9.99562 3.14699 9.9278 3.2681 9.9278 3.02103C9.9278 2.58988 10.0877 2.71099 7.1229 0.884658C5.56785 -0.0745316 5.48549 -0.103598 5.14639 0.104712Z" fill="#979797"/>
<path d="M13.0476 1.46109C12.9943 1.48046 12.8926 1.56766 12.8199 1.65002C12.4759 2.06179 12.6843 2.62374 13.2365 2.77392C13.9341 2.958 14.1763 3.03551 14.6753 3.22929C15.7411 3.64591 16.7245 4.29021 17.5868 5.14282C18.9868 6.53316 19.7861 8.04461 20.1785 10.0599C20.2754 10.5492 20.2996 12.4046 20.2173 12.7921L20.1737 13.0101L19.3259 11.707C18.7058 10.7575 18.4345 10.3796 18.3183 10.3118C18.0228 10.1374 17.5819 10.2294 17.4075 10.4959C17.2864 10.68 17.267 11.0094 17.3591 11.1886C17.4996 11.4599 19.7716 14.9479 19.8975 15.0835C20.0477 15.2482 20.2996 15.3354 20.5031 15.2967C20.6969 15.2579 24.5385 12.7727 24.6644 12.6032C24.8049 12.4142 24.8291 12.1478 24.7274 11.9201C24.6111 11.6731 24.3931 11.5374 24.1025 11.5374C23.8893 11.5374 23.7924 11.5907 22.7509 12.2592C22.1357 12.6613 21.6221 12.9762 21.6173 12.9714C21.6076 12.9617 21.627 12.6322 21.6609 12.2398C21.7723 10.8253 21.5204 9.18789 20.9682 7.7927C19.9605 5.25424 18.1342 3.31164 15.6684 2.15383C14.4961 1.60642 13.4061 1.31576 13.0476 1.46109Z" fill="#979797"/>
<path d="M13.4158 8.90198C12.1223 9.18296 11.2842 10.3747 11.2842 11.9346C11.2891 13.383 12.0157 14.4537 13.2414 14.8073C13.4254 14.8606 13.6919 14.8896 14.0165 14.8896C15.2033 14.88 16.1141 14.2841 16.5404 13.2377C16.8117 12.5789 16.865 11.6003 16.6809 10.8688C16.3079 9.39127 14.9417 8.56772 13.4158 8.90198ZM14.5542 9.7982C15.0483 9.98228 15.4504 10.52 15.5909 11.1885C15.6684 11.5567 15.6587 12.2931 15.5715 12.6273C15.3341 13.5332 14.7916 14.0177 14.0213 14.0177C13.2268 14.0177 12.6407 13.4315 12.4663 12.4626C12.3839 11.9975 12.3839 11.7553 12.4711 11.2757C12.6843 10.0743 13.5853 9.43487 14.5542 9.7982Z" fill="#979797"/>
<path d="M5.66473 8.92629C5.41283 8.95051 5.17545 8.97958 5.14639 8.99411C5.09794 9.00865 5.08341 9.63357 5.08341 11.8959V14.7783L5.2675 14.8171C5.62114 14.8849 7.21494 14.851 7.60249 14.7638C8.36306 14.5942 8.8475 14.2357 9.05581 13.6883C9.20598 13.2862 9.18176 12.7146 8.99283 12.3949C8.83297 12.1236 8.53261 11.862 8.25164 11.7457C8.13537 11.6973 8.03849 11.6488 8.03849 11.6343C8.03849 11.6198 8.14022 11.5568 8.26133 11.4938C9.03158 11.082 9.19145 10.0453 8.57621 9.45433C8.4551 9.33322 8.24679 9.18304 8.12084 9.12491C7.65578 8.89723 6.77894 8.82456 5.66473 8.92629ZM7.44263 9.79344C7.65578 9.88548 7.81564 10.0889 7.86893 10.3312C7.91738 10.5395 7.80111 10.864 7.62671 11.0336C7.42325 11.2274 7.14227 11.3 6.60455 11.3097L6.1734 11.3194V10.5201V9.72077L6.46406 9.69655C6.88552 9.66264 7.21009 9.69655 7.44263 9.79344ZM7.24885 12.1817C7.58796 12.2738 7.82533 12.4433 7.9416 12.6807C8.18382 13.17 7.9416 13.7416 7.41356 13.9451C7.24885 14.0081 7.05023 14.0323 6.68206 14.0323H6.1734L6.15886 13.0731L6.14917 12.1187H6.57548C6.80801 12.1187 7.11321 12.1478 7.24885 12.1817Z" fill="#979797"/>
<path d="M9.69527 11.862L9.7098 14.8074H10.2427H10.7756L10.7901 11.862L10.7998 8.92144H10.2427H9.68558L9.69527 11.862Z" fill="#979797"/>
<path d="M3.70276 16.2219C3.52836 16.2655 3.30068 16.4738 3.24739 16.6337C3.19894 16.7936 3.04877 20.0974 3.04877 21.0518C3.04877 21.4539 3.06815 21.5701 3.14566 21.6961C3.4121 22.1369 4.08547 22.0885 4.33253 21.6137C4.37613 21.5265 4.41489 21.0905 4.4488 20.2331C4.47786 19.5452 4.50208 18.9396 4.50208 18.8912C4.50208 18.8282 4.59897 18.8815 4.87995 19.1189C7.32636 21.1874 10.6302 22.0207 13.7549 21.3618C15.2954 21.0421 16.7729 20.3542 17.9937 19.395C18.5024 18.9978 18.7882 18.7071 18.8463 18.5279C18.9529 18.1984 18.7397 17.7867 18.4103 17.6849C18.0954 17.5929 17.9114 17.6607 17.4463 18.0434C16.2013 19.0801 14.9853 19.6857 13.4884 20.0102C12.2047 20.2864 10.6981 20.2621 9.44336 19.9473C7.98035 19.5742 6.59486 18.833 5.54363 17.8593L5.30141 17.6316L5.9554 17.6607C8.16444 17.7528 8.45026 17.7528 8.60528 17.6752C8.8911 17.5251 9.06065 17.1811 8.98799 16.8953C8.94923 16.7306 8.72639 16.4787 8.57621 16.4205C8.50839 16.3963 7.65578 16.343 6.68206 16.3091C5.70834 16.2704 4.66195 16.2316 4.35675 16.2219C4.05156 16.2074 3.75605 16.2074 3.70276 16.2219Z" fill="#979797"/>
</svg>
