<svg width="22" height="22" viewBox="0 0 22 22" fill="none" xmlns="http://www.w3.org/2000/svg">
<path d="M9.96508 0.0245991C8.07289 0.22287 6.34019 0.826302 4.9135 1.77886C3.70233 2.58918 2.58598 3.70122 1.78859 4.90377C-0.211353 7.908 -0.564791 11.9984 0.883443 15.4078C1.3274 16.4595 2.00841 17.5284 2.7196 18.2827L2.97821 18.5629L3.20665 18.3387L3.43078 18.1146L3.06442 17.6793C1.97393 16.3862 1.17223 14.744 0.831721 13.0975C0.573107 11.8303 0.568797 10.1062 0.827411 8.85625C1.65497 4.88222 4.76264 1.79179 8.85735 0.865093C9.90905 0.628031 11.353 0.559067 12.3917 0.692684C14.4348 0.964228 16.2709 1.80041 17.8399 3.17537L18.1243 3.42537L18.3485 3.19692L18.5726 2.96848L18.2924 2.70987C16.8356 1.34784 14.7365 0.390968 12.534 0.0849438C11.9909 0.00735855 10.4521 -0.0271225 9.96508 0.0245991Z" fill="#979797"/>
<path d="M9.64612 1.47275C8.42202 1.64085 7.22377 2.05463 6.18501 2.67099C5.7152 2.94685 5.02987 3.44683 4.68936 3.76579L4.4523 3.98561L4.67643 4.20974L4.90056 4.43387L5.15056 4.22267C6.42207 3.13219 7.84014 2.4641 9.53836 2.15377C10.1375 2.0417 11.4823 2.02446 12.1935 2.11497C16.6244 2.6753 19.9476 6.52864 19.9476 11.1018C19.9476 13.244 19.2191 15.1879 17.8011 16.8258L17.564 17.1016L17.7838 17.3214L18.0036 17.5413L18.0985 17.4551C18.2623 17.3085 18.7364 16.7008 19.0209 16.2784C19.7277 15.2094 20.1932 14.0586 20.4475 12.7397C20.6027 11.9509 20.6415 10.5759 20.5337 9.73114C20.0036 5.58039 16.7925 2.28738 12.534 1.53309C11.8314 1.4081 10.3314 1.37362 9.64612 1.47275Z" fill="#979797"/>
<path d="M18.7967 3.6538L18.5769 3.87362L18.9433 4.30895C19.9864 5.54167 20.7794 7.14077 21.1286 8.69244C21.4389 10.076 21.4561 11.7958 21.1803 13.132C20.8269 14.8173 20.0683 16.3646 18.9476 17.6749C17.3399 19.5499 14.9865 20.8559 12.4909 21.2524C11.8918 21.3473 10.3961 21.386 9.81423 21.3214C7.71085 21.08 5.80573 20.2395 4.18939 18.8301L3.88337 18.5672L3.65924 18.7913L3.4351 19.0197L3.71527 19.2784C4.71093 20.2094 6.11175 21.0154 7.52982 21.4636C11.1202 22.5972 15.0512 21.9076 17.8787 19.6447C18.7493 18.9465 19.6976 17.8991 20.2838 16.9939C22.2406 13.9682 22.5596 9.92086 21.1027 6.53302C20.6501 5.47271 19.8269 4.20981 19.1847 3.59345L19.0166 3.42966L18.7967 3.6538Z" fill="#979797"/>
<path d="M12.6633 4.85206V5.36929H12.4779C12.3788 5.36929 12.1935 5.39515 12.0728 5.42532L11.8573 5.48135L11.5857 4.98568C11.4349 4.70982 11.3099 4.48138 11.3056 4.47276C11.2883 4.45121 10.7754 4.71414 10.7539 4.75293C10.7409 4.77448 10.8573 5.01585 11.0125 5.29602L11.2926 5.80031L11.1288 5.98565C11.034 6.08479 10.9306 6.20978 10.8961 6.26582L10.8314 6.36495L10.3013 6.12789C10.0082 5.99427 9.75389 5.88652 9.73665 5.88652C9.70216 5.88652 9.47372 6.36064 9.47372 6.4296C9.47372 6.45116 9.7194 6.58046 10.0254 6.71408L10.5728 6.95976V7.29596V7.63216L9.99526 7.75284C9.6763 7.8175 9.40907 7.87784 9.40045 7.88646C9.38321 7.89939 9.49958 8.47265 9.52113 8.48989C9.52975 8.49851 9.8013 8.4511 10.1203 8.38645C10.4392 8.32179 10.7064 8.27007 10.7064 8.27438C10.7108 8.27438 10.7668 8.38213 10.8271 8.50713C10.8918 8.63213 11.0383 8.83471 11.1547 8.95539C11.2754 9.08039 11.3702 9.19246 11.3702 9.2097C11.3702 9.22694 11.2969 9.40366 11.2021 9.60193C10.9435 10.1666 10.9392 10.1235 11.2495 10.2528C11.4004 10.3174 11.534 10.3691 11.5469 10.3691C11.5642 10.3691 11.659 10.1752 11.7624 9.94244L11.9478 9.51572L12.1633 9.60193C12.284 9.64934 12.5771 9.7571 12.8141 9.83899C13.3357 10.02 13.5038 10.1278 13.5857 10.326C13.6589 10.5071 13.6589 10.5071 13.1374 10.5803C12.9348 10.6062 12.715 10.6407 12.646 10.6536L12.5254 10.6795L12.5555 10.9683C12.5728 11.1234 12.5986 11.2657 12.6116 11.2829C12.6288 11.3002 12.8745 11.2743 13.159 11.2312C13.4434 11.1838 13.6891 11.145 13.702 11.145C13.7193 11.145 13.7452 11.2312 13.7581 11.3346C13.7753 11.4381 13.8529 11.6622 13.9348 11.8303C14.0167 12.0027 14.0857 12.1493 14.0857 12.1579C14.0857 12.1622 13.9133 12.3131 13.6977 12.4855C13.4865 12.6622 13.3098 12.813 13.3098 12.826C13.3141 12.8389 13.4046 12.951 13.521 13.0803L13.7279 13.3173L14.1115 12.9941C14.3227 12.813 14.5167 12.6536 14.5469 12.6363C14.577 12.6191 14.6762 12.6449 14.7667 12.6924C14.8615 12.7398 15.0253 12.8001 15.1374 12.8303L15.3356 12.8777L15.3141 13.2311C15.3011 13.4208 15.2796 13.6708 15.2667 13.7785L15.2494 13.9768L15.4089 14.007C15.4994 14.0199 15.646 14.0328 15.7322 14.0328C15.8873 14.0328 15.8916 14.0285 15.9132 13.8475C15.9261 13.7484 15.9434 13.5027 15.9563 13.3044C15.9692 13.1061 15.9908 12.9337 15.9994 12.9208C16.0123 12.9122 16.1158 12.8863 16.2278 12.8648C16.3399 12.8432 16.5339 12.7872 16.6589 12.7355L16.883 12.6449L17.0252 12.8087C17.439 13.2829 17.5511 13.4079 17.5769 13.4208C17.6114 13.4337 18.0209 13.0975 18.0424 13.0415C18.0511 13.0242 17.9088 12.8389 17.7278 12.632L17.4045 12.2484L17.4778 12.1406C17.6244 11.9251 17.7537 11.6407 17.7795 11.4812L17.8054 11.3174H18.314H18.8269V10.9941V10.6709H18.3312C17.8442 10.6709 17.8356 10.6709 17.8356 10.5717C17.8356 10.52 17.7968 10.3002 17.7537 10.089C17.7106 9.87347 17.6761 9.69675 17.6847 9.68813C17.689 9.68382 17.8959 9.61917 18.1416 9.5459C18.3873 9.47262 18.5942 9.40797 18.5985 9.40366C18.6028 9.39935 18.564 9.25711 18.5123 9.08901L18.4174 8.78299L17.9433 8.92522C17.6847 9.00712 17.4649 9.06746 17.4606 9.05884C17.4519 9.05022 17.3614 8.86919 17.258 8.65368L17.064 8.26145L17.5252 7.99421C17.7795 7.84767 17.995 7.71836 18.008 7.70974C18.0295 7.68819 17.7925 7.23131 17.7278 7.17958C17.7019 7.15803 17.4821 7.26148 17.2106 7.42527L16.7364 7.70543L16.6287 7.55888C16.5683 7.4813 16.4304 7.31751 16.3184 7.19682L16.1115 6.977L16.4994 6.5546L16.8916 6.12789L16.6632 5.89945L16.4347 5.671L16.0382 6.09772L15.6373 6.52443L15.2192 6.24426C14.9865 6.0891 14.7925 5.94686 14.7839 5.92962C14.7796 5.91238 14.8701 5.69687 14.9908 5.45118C15.1115 5.20981 15.202 4.98999 15.1977 4.97275C15.1891 4.95551 15.0641 4.88223 14.9132 4.80896L14.6417 4.67965L14.4046 5.16671C14.2753 5.42963 14.1546 5.64945 14.1374 5.64945C14.1201 5.64945 14.0124 5.61497 13.8917 5.57618C13.7753 5.53739 13.5943 5.48135 13.4952 5.45549L13.3098 5.40808V4.87361V4.33484H12.9866H12.6633V4.85206ZM13.5684 6.14082C14.3357 6.39943 15.1891 6.94252 15.7408 7.5244C16.5727 8.408 17.1933 9.86485 17.189 10.9209C17.1847 11.4424 17.0339 11.757 16.6761 11.9984C16.3011 12.2527 15.758 12.326 15.2753 12.1924C15.0598 12.132 14.9693 12.076 14.7667 11.8777C14.5598 11.6665 14.5124 11.5889 14.4391 11.3346C14.3917 11.1708 14.3357 10.8605 14.3098 10.6407C14.2581 10.1795 14.1589 9.92519 13.9391 9.70968C13.7408 9.5071 13.5081 9.39073 12.8572 9.16229C12.1935 8.92953 11.8961 8.77005 11.6288 8.50713C11.3185 8.19248 11.228 7.92525 11.2495 7.39509C11.2668 7.07614 11.2926 6.93821 11.3702 6.77011C11.5125 6.47702 11.784 6.2184 12.0642 6.10634C12.2667 6.02875 12.3616 6.01582 12.7926 6.03306C13.1503 6.04599 13.3659 6.07617 13.5684 6.14082Z" fill="#979797"/>
<path d="M12.2323 7.2872V7.6106H12.5557H12.8791V7.2872V6.9638H12.5557H12.2323V7.2872Z" fill="#979797"/>
<path d="M13.6546 7.8475V8.1709H13.978H14.3014V7.8475V7.52411H13.978H13.6546V7.8475Z" fill="#979797"/>
<path d="M3.76698 4.68388C2.83166 5.72264 2.07737 7.16226 1.69376 8.63635C1.42222 9.67943 1.33602 11.1751 1.48256 12.3087C2.03858 16.5844 5.48245 19.9378 9.91767 20.5196C10.5642 20.6015 11.6331 20.6015 12.3055 20.5196C14.0038 20.3084 15.7235 19.5628 17.0382 18.468C17.6071 17.9938 17.5899 18.0326 17.3313 17.774L17.1157 17.5585L16.7752 17.843C15.4735 18.9421 13.7753 19.6791 12.0598 19.8903C11.59 19.9507 10.3746 19.9507 9.90474 19.8903C7.12464 19.5455 4.7454 17.9723 3.31441 15.5284C2.48253 14.1017 2.06013 12.5371 2.06013 10.8863C2.06013 8.74411 2.78856 6.8002 4.20662 5.16231L4.44369 4.89077L4.23248 4.67526C4.12042 4.55888 4.01266 4.46406 3.99542 4.46406C3.97818 4.46406 3.87474 4.56319 3.76698 4.68388Z" fill="#979797"/>
<path d="M6.46518 4.64088C6.14623 4.76588 5.80572 5.11501 5.68072 5.44258C5.49538 5.92964 5.63331 6.57186 6.00399 6.94254C6.37036 7.3046 6.96517 7.42529 7.49102 7.24857C7.81859 7.1365 8.18065 6.77013 8.29272 6.44687C8.4134 6.09343 8.40047 5.66672 8.26255 5.36931C8.12462 5.08053 7.8617 4.80898 7.58584 4.67536C7.28844 4.53313 6.77121 4.5202 6.46518 4.64088ZM7.28844 5.25724C7.62463 5.39948 7.81428 5.80464 7.71084 6.14946C7.60308 6.5029 7.21947 6.75289 6.87465 6.68824C6.36174 6.59341 6.09881 6.04602 6.33588 5.58482C6.50398 5.25724 6.93931 5.10639 7.28844 5.25724Z" fill="#979797"/>
<path d="M5.0773 9.40363C4.56438 9.54155 4.14198 9.90361 3.8963 10.4122C3.7713 10.6751 3.76268 10.7269 3.76268 11.1665C3.76268 11.5932 3.77561 11.6665 3.88337 11.8949C4.26698 12.7139 5.08161 13.132 5.94796 12.9509C6.6807 12.7958 7.18931 12.2785 7.34447 11.5199C7.42637 11.1363 7.37034 10.7269 7.18931 10.3389C6.84018 9.58466 5.91779 9.1795 5.0773 9.40363ZM5.95227 10.0502C6.53846 10.2484 6.87035 10.9036 6.69363 11.5113C6.59881 11.8432 6.27554 12.1751 5.94365 12.2872C5.49539 12.4337 4.93506 12.2785 4.64197 11.9208C4.37473 11.6018 4.3187 11.0027 4.51697 10.6148C4.64197 10.3777 4.71524 10.2958 4.93937 10.1665C5.26264 9.97258 5.61608 9.93378 5.95227 10.0502Z" fill="#979797"/>
<path d="M9.09872 11.1838C8.56426 11.6062 8.33582 12.1967 8.4996 12.7484C8.59012 13.0673 8.81856 13.2958 9.21941 13.4811C10.2366 13.9466 10.3832 14.0587 10.4478 14.4121C10.4866 14.6147 10.4047 15.0931 10.2539 15.5802L10.1332 15.9638L10.3746 16.0543C10.5082 16.1017 10.6418 16.1448 10.6763 16.1534C10.7495 16.1707 10.9564 15.5759 11.0513 15.0673C11.1978 14.2871 11.0125 13.744 10.4737 13.3733C10.3832 13.3087 10.0901 13.1578 9.81853 13.0415C9.5513 12.9251 9.28406 12.7828 9.22803 12.7354C9.10304 12.6148 9.05993 12.3906 9.12459 12.1751C9.17631 12.0113 9.41768 11.7182 9.57285 11.632C9.65043 11.5932 9.65043 11.5803 9.54699 11.3777C9.3401 10.9812 9.34872 10.9855 9.09872 11.1838Z" fill="#979797"/>
<path d="M7.00395 14.7267C6.64189 14.8129 6.2669 15.1146 6.07725 15.4767C5.97812 15.662 5.96088 15.7439 5.96088 16.0801C5.96088 16.3861 5.98243 16.5111 6.05139 16.6663C6.27121 17.1361 6.70223 17.4335 7.22808 17.4723C7.8272 17.5154 8.30133 17.2482 8.56856 16.7309C8.70649 16.4637 8.71942 16.3991 8.71942 16.0844C8.71511 15.8258 8.69356 15.6836 8.6289 15.537C8.34443 14.9163 7.6591 14.5715 7.00395 14.7267ZM7.55566 15.3732C8.05133 15.5111 8.2496 16.1749 7.9091 16.5628C7.55997 16.9637 6.95223 16.912 6.6893 16.4637C6.44793 16.0542 6.63758 15.5499 7.09015 15.3905C7.29274 15.3172 7.34015 15.3129 7.55566 15.3732Z" fill="#979797"/>
<path d="M13.6331 15.4984C12.9004 15.6104 12.228 15.7268 12.1418 15.7527C12.0556 15.7785 11.8918 15.882 11.7797 15.9811C11.2926 16.4078 11.228 17.0716 11.6245 17.5931C11.84 17.8776 12.159 18.0414 12.4952 18.0414C12.8228 18.0414 15.2451 17.675 15.5253 17.5802C15.8184 17.4854 16.1201 17.1836 16.2192 16.8819C16.4089 16.3001 16.1373 15.6406 15.6115 15.4078C15.2882 15.2613 15.0512 15.2742 13.6331 15.4984ZM15.3141 15.9897C15.6977 16.1535 15.7451 16.7526 15.3874 16.938C15.2667 17.0026 12.8098 17.3948 12.5426 17.3948C12.2409 17.3948 12.0168 17.1707 12.0168 16.869C12.0168 16.7009 12.1461 16.4725 12.2797 16.3992C12.3616 16.3561 14.8012 15.9552 15.0899 15.9337C15.1331 15.9337 15.2322 15.9552 15.3141 15.9897Z" fill="#979797"/>
</svg>
