<svg width="13" height="13" viewBox="0 0 13 13" fill="none" xmlns="http://www.w3.org/2000/svg">
<path d="M12.424 0.576312C12.0544 0.207275 11.5534 0 11.0311 0C10.5089 0 10.0079 0.207275 9.63832 0.576312L0.796451 9.41837C0.543248 9.67015 0.342485 9.96965 0.205778 10.2995C0.0690698 10.6294 -0.000868735 10.9831 8.1445e-06 11.3402V12.4563C8.1445e-06 12.6005 0.0572851 12.7388 0.159239 12.8408C0.261192 12.9427 0.399471 13 0.543655 13H1.65976C2.01681 13.001 2.37051 12.9312 2.70039 12.7945C3.03026 12.6579 3.32977 12.4572 3.58155 12.2041L12.424 3.36147C12.7928 2.99189 13 2.49106 13 1.96889C13 1.44673 12.7928 0.945894 12.424 0.576312ZM2.81284 11.4353C2.50622 11.7399 2.09194 11.9114 1.65976 11.9127H1.0873V11.3402C1.08675 11.1259 1.1287 10.9137 1.21073 10.7158C1.29276 10.5179 1.41323 10.3382 1.56517 10.1871L8.2754 3.47673L9.52579 4.72714L2.81284 11.4353ZM11.6547 2.59274L10.2923 3.95569L9.04194 2.708L10.4049 1.34504C10.487 1.26312 10.5844 1.19817 10.6916 1.1539C10.7988 1.10963 10.9137 1.08691 11.0297 1.08704C11.1456 1.08716 11.2605 1.11013 11.3676 1.15463C11.4747 1.19914 11.572 1.2643 11.6539 1.3464C11.7358 1.42851 11.8008 1.52594 11.845 1.63315C11.8893 1.74035 11.912 1.85523 11.9119 1.97121C11.9118 2.0872 11.8888 2.20202 11.8443 2.30913C11.7998 2.41624 11.7346 2.51353 11.6525 2.59546L11.6547 2.59274Z" fill="#7D7D7D"/>
</svg>
