<svg width="19" height="22" viewBox="0 0 19 22" fill="none" xmlns="http://www.w3.org/2000/svg">
<path d="M11.0718 0.429327C8.83335 2.47002 7.43912 4.43835 6.88432 6.36325C6.86985 6.40185 6.80231 6.33431 6.71065 6.1944C6.62381 6.06415 6.38259 5.78433 6.1655 5.56724C5.86639 5.26813 5.68306 5.13305 5.37431 4.97867C4.89187 4.73746 4.6989 4.71816 4.54935 4.90631C4.44804 5.03656 4.44321 5.07516 4.47216 5.62996C4.56864 7.61758 5.4515 9.36399 6.80713 10.2661C7.04353 10.4253 7.09177 10.4881 7.33299 10.9753C7.67069 11.6459 7.99392 12.1139 8.67415 12.905C9.27237 13.6046 9.43639 13.8313 9.65831 14.2655C10.3 15.5488 10.0684 17.1312 9.01185 18.5978C8.51977 19.278 8.48118 19.3793 8.48118 20.0209C8.48118 20.5178 8.49565 20.6047 8.61143 20.8507C8.76099 21.174 9.05527 21.5068 9.36403 21.7046C9.91883 22.052 10.6955 22.1002 11.2745 21.8108C11.781 21.5599 12.0174 21.2801 12.4371 20.4358C12.8279 19.635 13.0112 19.1236 13.2138 18.2552C13.3393 17.7246 13.3489 17.6088 13.3538 16.6439C13.3538 15.8189 13.3345 15.5247 13.2669 15.1966C12.9292 13.6239 12.1621 12.3937 10.7824 11.2117C9.99119 10.5363 9.67761 10.2034 9.33026 9.69204C8.82853 8.9491 8.63073 8.28334 8.63073 7.33295C8.62591 5.52382 9.5956 3.48313 11.6604 0.950356C11.945 0.598179 12.0415 0.4438 12.0415 0.337666C12.0415 0.139868 11.9016 -3.8147e-05 11.7038 -3.8147e-05C11.5687 -3.8147e-05 11.4674 0.067503 11.0718 0.429327ZM8.42811 4.79535C7.93603 6.01108 7.78647 7.40531 8.02287 8.46184C8.10005 8.79954 8.34127 9.44118 8.51012 9.74029C8.8816 10.4012 9.24342 10.8016 10.2662 11.6941C11.0188 12.3551 11.3854 12.77 11.7955 13.4116C12.7845 14.9795 12.9533 16.9671 12.2683 19.0175C12.0946 19.5433 11.6218 20.5371 11.4095 20.8218C11.0911 21.256 10.3771 21.42 9.88506 21.1788C9.47499 20.981 9.13246 20.4551 9.13246 20.0209C9.13246 19.7556 9.27719 19.4372 9.56183 19.0512C9.91883 18.5833 10.382 17.657 10.5653 17.054C10.6811 16.6632 10.6955 16.5474 10.6955 15.8479C10.7004 14.9699 10.6473 14.7142 10.3385 14.0532C10.0877 13.5129 9.89471 13.2379 9.27237 12.5143C8.57284 11.699 8.26408 11.2551 7.94568 10.599C7.13519 8.92015 7.18343 7.06278 8.08076 5.23436C8.25443 4.89183 8.56801 4.33704 8.58249 4.35633C8.59214 4.36116 8.51977 4.55895 8.42811 4.79535ZM5.55763 5.96284C5.89534 6.27159 6.19927 6.68166 6.43566 7.13997C6.58521 7.43426 6.59486 7.49215 6.62863 8.13378C6.64793 8.50526 6.67688 8.92015 6.69617 9.05041L6.72512 9.2868L6.49838 9.04558C5.87121 8.37983 5.41773 7.36672 5.24887 6.24747C5.21028 5.98213 5.17651 5.75056 5.17651 5.72644C5.17651 5.64925 5.273 5.70715 5.55763 5.96284Z" fill="#979797"/>
<path d="M2.69198 1.79462C1.9828 2.58098 1.23985 3.94627 0.79119 5.28743C0.260514 6.88911 0 8.45702 0 10.1069C0.00482433 12.6252 0.656109 14.6322 1.90561 15.9444C2.58584 16.668 3.18888 17.0347 4.33225 17.4399C5.62035 17.8934 6.31987 18.2794 6.97116 18.892C7.27992 19.1863 7.42947 19.2201 7.61279 19.032C7.79612 18.8535 7.76717 18.6991 7.49219 18.4096C6.92292 17.8066 5.987 17.2759 4.69407 16.8128C3.79675 16.4944 3.63272 16.422 3.22265 16.147C2.13718 15.4137 1.38458 14.2317 0.984164 12.6156C0.617514 11.149 0.617514 9.14207 0.984164 7.33295C1.1096 6.70096 1.17714 6.49834 1.13854 6.87464C1.08547 7.3426 1.10477 9.05041 1.16749 9.60039C1.4473 12.0463 2.35427 13.9423 3.6279 14.7383C3.9656 14.9457 4.37567 15.0808 5.20063 15.2449C6.49837 15.5054 7.62727 15.9203 8.44258 16.4461C8.65485 16.5812 8.87195 16.6922 8.92501 16.6922C9.09869 16.6922 9.27719 16.5088 9.27719 16.3352C9.27719 16.1422 9.19035 16.0602 8.67415 15.7514C7.69963 15.1628 6.78783 14.8444 5.19098 14.5212C4.20682 14.3186 3.76298 14.0822 3.28055 13.484C1.71746 11.5542 1.34116 7.37154 2.43146 4.08135C2.64373 3.44454 2.90425 2.85597 3.22748 2.31082C3.34326 2.1082 3.43975 1.9104 3.43975 1.87181C3.43975 1.71743 3.24678 1.54375 3.07792 1.54375C2.94767 1.54375 2.88013 1.58717 2.69198 1.79462Z" fill="#979797"/>
<path d="M17.5027 1.78015C14.5357 2.71607 13.3682 3.75813 12.963 5.81812C12.9051 6.11723 12.8809 6.79746 12.8472 9.0456C12.8231 10.6087 12.7941 11.9788 12.7748 12.0849C12.7459 12.2441 12.7603 12.302 12.8472 12.413C12.9871 12.5867 13.2476 12.5818 13.3875 12.3985C13.5129 12.2248 13.5708 10.985 13.566 8.64518C13.5612 7.46321 13.5805 6.61896 13.6142 6.34397C13.6914 5.75058 13.8362 5.21025 14.0098 4.86773C14.1594 4.56862 14.4874 4.08136 14.5164 4.11513C14.526 4.12478 14.4585 4.26951 14.3717 4.44318C14.116 4.93044 14.034 5.32604 14.0388 6.07863C14.0436 6.78298 14.116 7.3619 14.4633 9.37365C14.8107 11.3757 14.8444 11.67 14.8444 12.9292C14.8493 13.7976 14.83 14.1883 14.7624 14.5936C14.6081 15.5633 14.3282 16.5088 13.9712 17.2711C13.8796 17.4689 13.8024 17.6956 13.8024 17.7776C13.8072 18.0623 14.1787 18.1974 14.3813 17.9803C14.6081 17.739 15.0615 16.5667 15.2738 15.6549C15.6308 14.1304 15.6742 12.6928 15.4185 10.7727L15.3414 10.1793L15.4764 9.97669C15.9203 9.29164 16.7356 8.38466 17.7583 7.43427C18.4096 6.8264 18.4627 6.72027 18.2263 6.4887C18.1202 6.37774 18.0719 6.36809 17.7053 6.36809C17.2421 6.36809 16.861 6.42598 16.4172 6.57071C16.0554 6.6865 15.4234 6.99526 15.1291 7.19305C15.0181 7.27024 14.9072 7.33296 14.883 7.33296C14.8348 7.33296 14.801 7.05797 14.748 6.31502C14.6804 5.34533 14.912 4.67958 15.5343 4.06689C15.9975 3.60375 16.8465 3.04895 17.8307 2.5617C18.2697 2.3446 18.6557 2.13233 18.6894 2.09374C18.7763 1.9876 18.7618 1.75121 18.6605 1.64025C18.5302 1.49552 18.318 1.51964 17.5027 1.78015ZM16.3641 7.80092C16.0361 8.14345 15.6308 8.58728 15.4668 8.78991L15.1725 9.16138L15.1098 8.81403C15.0036 8.18686 15.0085 8.15792 15.2835 7.95047C15.6935 7.63689 16.6005 7.2027 16.8707 7.19305C16.9334 7.18823 16.7645 7.39085 16.3641 7.80092Z" fill="#979797"/>
</svg>
