<svg width="20" height="20" viewBox="0 0 20 20" fill="none" xmlns="http://www.w3.org/2000/svg">
<path d="M11.6677 20C11.0102 20.0019 10.3589 19.8733 9.7516 19.6217C9.14428 19.37 8.59303 19.0004 8.12984 18.5341C7.19686 17.5933 6.67344 16.3224 6.67344 14.9979C6.67344 13.6734 7.19686 12.4025 8.12984 11.4617L11.6677 7.71083L15.223 11.4767C16.1477 12.4194 16.6642 13.6877 16.661 15.0077C16.6577 16.3278 16.1349 17.5935 15.2055 18.5316C14.7425 18.9983 14.1913 19.3684 13.584 19.6205C12.9767 19.8726 12.3253 20.0016 11.6677 20ZM11.6677 10.1425L9.32579 12.6233C8.69578 13.2488 8.34012 14.0987 8.337 14.9861C8.33387 15.8735 8.68353 16.7259 9.30911 17.3558C9.94427 17.9624 10.789 18.3009 11.6677 18.3009C12.5463 18.3009 13.391 17.9624 14.0262 17.3558C14.648 16.7285 14.9969 15.8813 14.9969 14.9983C14.9969 14.1154 14.648 13.2681 14.0262 12.6408L11.6677 10.1425ZM4.16169 9.99666C3.61388 9.99819 3.07122 9.89106 2.56515 9.6815C2.05907 9.47194 1.59966 9.1641 1.21352 8.77582C0.43613 7.99182 0 6.93281 0 5.82916C0 4.72551 0.43613 3.6665 1.21352 2.8825L4.16169 0L7.1032 2.87333C7.8837 3.65663 8.32245 4.71661 8.3237 5.82195C8.32495 6.9273 7.8886 7.98826 7.10987 8.77332C6.72381 9.16171 6.26441 9.46962 5.75832 9.67919C5.25223 9.88876 4.70952 9.99582 4.16169 9.99416V9.99666ZM4.16169 2.33L2.38612 4.065C1.93108 4.53724 1.67988 5.16918 1.68664 5.8247C1.6934 6.48021 1.95757 7.10685 2.42225 7.56962C2.88692 8.0324 3.51493 8.29429 4.17098 8.29888C4.82704 8.30347 5.45865 8.05039 5.92976 7.59416C6.39623 7.1238 6.65793 6.48842 6.65793 5.82624C6.65793 5.16407 6.39623 4.52868 5.92976 4.05833L4.16169 2.33ZM16.6716 8.32999C16.2332 8.33065 15.7989 8.24437 15.3941 8.07615C14.9892 7.90793 14.6218 7.66111 14.3131 7.34999C13.6913 6.72283 13.3424 5.87572 13.3424 4.99291C13.3424 4.1101 13.6913 3.26299 14.3131 2.63583L16.6566 0.0325L19.0569 2.66666C19.6664 3.29631 20.0049 4.13943 19.9999 5.01543C19.995 5.89144 19.6468 6.73065 19.0302 7.35333C18.721 7.66339 18.3533 7.90913 17.9485 8.07634C17.5437 8.24355 17.1097 8.32891 16.6716 8.32749V8.32999ZM16.665 2.5175L15.5224 3.785C15.2053 4.09353 15.0239 4.51529 15.018 4.95748C15.0121 5.39968 15.1823 5.82609 15.4911 6.14291C15.7999 6.45973 16.222 6.64102 16.6645 6.64688C17.1071 6.65274 17.5338 6.4827 17.8509 6.17416C18.1618 5.86051 18.3362 5.43689 18.3362 4.99541C18.3362 4.55394 18.1618 4.13031 17.8509 3.81666L16.665 2.5175Z" fill="#1F3139"/>
</svg>
