<svg width="20" height="24" viewBox="0 0 20 24" fill="none" xmlns="http://www.w3.org/2000/svg">
<path d="M6.99049 23.9987C0.908048 24.1157 -2.35033 16.3611 1.98684 12.1103V4.99973C2.19799 -1.60891 11.785 -1.59991 11.9941 4.99973V12.1103C16.3323 16.3621 13.0719 24.1157 6.99049 23.9987ZM6.99049 1.99989C6.19426 1.99989 5.43064 2.31594 4.86762 2.87852C4.3046 3.4411 3.9883 4.20412 3.9883 4.99973V12.5363C3.98828 12.6767 3.95868 12.8155 3.90144 12.9436C3.8442 13.0718 3.76059 13.1865 3.65606 13.2803C2.91309 13.9599 2.39183 14.847 2.15999 15.8265C1.92815 16.8059 1.99645 17.8324 2.35602 18.7726C2.71559 19.7128 3.34981 20.5231 4.17628 21.0985C5.00276 21.6738 5.98329 21.9875 6.99049 21.9988C7.9977 21.9875 8.97823 21.6738 9.8047 21.0985C10.6312 20.5231 11.2654 19.7128 11.625 18.7726C11.9845 17.8324 12.0528 16.8059 11.821 15.8265C11.5892 14.847 11.0679 13.9599 10.3249 13.2803C10.2204 13.1865 10.1368 13.0718 10.0795 12.9436C10.0223 12.8155 9.99271 12.6767 9.99269 12.5363V4.99973C9.99269 4.20412 9.67639 3.4411 9.11337 2.87852C8.55034 2.31594 7.78672 1.99989 6.99049 1.99989ZM6.99049 19.9989C6.28718 19.9901 5.60919 19.7353 5.07429 19.279C4.53939 18.8226 4.18138 18.1934 4.06245 17.5007C3.94352 16.808 4.07119 16.0956 4.42327 15.4872C4.77536 14.8787 5.32961 14.4128 5.98976 14.1702V4.99973C5.98976 4.73453 6.0952 4.48019 6.28287 4.29266C6.47054 4.10513 6.72508 3.99978 6.99049 3.99978C7.2559 3.99978 7.51044 4.10513 7.69812 4.29266C7.88579 4.48019 7.99122 4.73453 7.99122 4.99973V14.1702C8.65137 14.4128 9.20563 14.8787 9.55771 15.4872C9.9098 16.0956 10.0375 16.808 9.91854 17.5007C9.79961 18.1934 9.4416 18.8226 8.9067 19.279C8.3718 19.7353 7.6938 19.9901 6.99049 19.9989ZM6.99049 15.9991C6.72508 15.9991 6.47054 16.1045 6.28287 16.292C6.0952 16.4795 5.98976 16.7339 5.98976 16.9991C5.98976 17.2643 6.0952 17.5186 6.28287 17.7061C6.47054 17.8937 6.72508 17.999 6.99049 17.999C7.2559 17.999 7.51044 17.8937 7.69812 17.7061C7.88579 17.5186 7.99122 17.2643 7.99122 16.9991C7.99122 16.7339 7.88579 16.4795 7.69812 16.292C7.51044 16.1045 7.2559 15.9991 6.99049 15.9991ZM16.9978 5.99967C16.2016 5.99967 15.438 5.68362 14.8749 5.12104C14.3119 4.55846 13.9956 3.79544 13.9956 2.99984C13.9956 2.20423 14.3119 1.44121 14.8749 0.878632C15.438 0.316053 16.2016 0 16.9978 0C17.794 0 18.5577 0.316053 19.1207 0.878632C19.6837 1.44121 20 2.20423 20 2.99984C20 3.79544 19.6837 4.55846 19.1207 5.12104C18.5577 5.68362 17.794 5.99967 16.9978 5.99967ZM16.9978 1.99989C16.7324 1.99989 16.4779 2.10524 16.2902 2.29277C16.1025 2.48029 15.9971 2.73463 15.9971 2.99984C15.9971 3.26504 16.1025 3.51938 16.2902 3.7069C16.4779 3.89443 16.7324 3.99978 16.9978 3.99978C17.2632 3.99978 17.5178 3.89443 17.7054 3.7069C17.8931 3.51938 17.9985 3.26504 17.9985 2.99984C17.9985 2.73463 17.8931 2.48029 17.7054 2.29277C17.5178 2.10524 17.2632 1.99989 16.9978 1.99989Z" fill="#1F3139"/>
</svg>
