<svg width="140" height="83" viewBox="0 0 140 83" fill="none" xmlns="http://www.w3.org/2000/svg">
<path d="M38.5634 77.9176V62.5161H41.4149V69.0362H48.7089V62.5161H51.5682V77.9176H48.7089V71.375H41.4149V77.9176H38.5634ZM56.6909 77.9176H53.6471L59.1888 62.5161H62.7089L68.2582 77.9176H65.2146L61.0103 65.6746H60.8874L56.6909 77.9176ZM56.7907 71.8788H65.0917V74.1198H56.7907V71.8788ZM70.3317 77.9176V62.5161H76.2343C77.4436 62.5161 78.4582 62.7217 79.2781 63.1328C80.103 63.5439 80.7257 64.1204 81.1458 64.8624C81.5711 65.5994 81.7838 66.4592 81.7838 67.4419C81.7838 68.4295 81.5685 69.2868 81.1382 70.0138C80.7129 70.7357 80.0852 71.2947 79.255 71.6908C78.4249 72.0819 77.4053 72.2774 76.196 72.2774H71.9917V69.9612H75.8116C76.5187 69.9612 77.0977 69.8659 77.5488 69.6754C77.9996 69.4798 78.3327 69.1966 78.5478 68.8256C78.7682 68.4496 78.8783 67.9883 78.8783 67.4419C78.8783 66.8954 78.7682 66.4291 78.5478 66.0431C78.3275 65.6521 77.992 65.3563 77.541 65.1557C77.0901 64.9502 76.5086 64.8474 75.7963 64.8474H73.183V77.9176H70.3317ZM78.4634 70.9388L82.3602 77.9176H79.1781L75.3506 70.9388H78.4634ZM86.1128 62.5161L90.2095 74.6387H90.371L94.4599 62.5161H97.5957L92.0464 77.9176H88.5263L82.9846 62.5161H86.1128ZM99.6691 77.9176V62.5161H109.907V64.8549H102.52V69.0362H109.376V71.375H102.52V75.5788H109.968V77.9176H99.6691ZM121.37 66.75C121.299 66.0932 120.996 65.5819 120.464 65.2159C119.936 64.8499 119.249 64.6669 118.404 64.6669C117.809 64.6669 117.3 64.7546 116.874 64.9301C116.449 65.1056 116.123 65.3437 115.898 65.6445C115.673 65.9453 115.557 66.2888 115.552 66.6748C115.552 66.9957 115.626 67.2739 115.775 67.5096C115.929 67.7452 116.136 67.9457 116.398 68.1112C116.659 68.2716 116.948 68.407 117.266 68.5173C117.584 68.6276 117.904 68.7203 118.227 68.7955L119.703 69.1565C120.297 69.2919 120.868 69.4748 121.417 69.7055C121.97 69.9361 122.464 70.2269 122.9 70.5778C123.341 70.9288 123.689 71.3524 123.945 71.8487C124.201 72.3451 124.33 72.9266 124.33 73.5934C124.33 74.4958 124.094 75.2905 123.623 75.9773C123.151 76.6592 122.47 77.1931 121.578 77.5792C120.692 77.9602 119.618 78.1507 118.357 78.1507C117.133 78.1507 116.07 77.9652 115.168 77.5942C114.271 77.2232 113.569 76.6817 113.062 75.9698C112.56 75.2579 112.288 74.3906 112.247 73.3678H115.053C115.094 73.9043 115.263 74.3505 115.56 74.7064C115.857 75.0624 116.244 75.3281 116.72 75.5036C117.202 75.679 117.74 75.7668 118.335 75.7668C118.954 75.7668 119.498 75.6765 119.964 75.496C120.435 75.3105 120.804 75.0549 121.071 74.729C121.337 74.3981 121.473 74.0121 121.478 73.5709C121.473 73.1698 121.353 72.8389 121.117 72.5782C120.881 72.3125 120.551 72.0919 120.125 71.9164C119.705 71.7359 119.213 71.5755 118.65 71.4351L116.859 70.9839C115.562 70.658 114.538 70.1642 113.784 69.5024C113.036 68.8356 112.662 67.9507 112.662 66.8478C112.662 65.9403 112.913 65.1457 113.416 64.4639C113.923 63.782 114.612 63.2531 115.483 62.8771C116.354 62.4961 117.34 62.3055 118.442 62.3055C119.559 62.3055 120.538 62.4961 121.378 62.8771C122.224 63.2531 122.887 63.777 123.369 64.4488C123.85 65.1156 124.099 65.8827 124.114 66.75H121.37ZM126.18 64.8549V62.5161H138.739V64.8549H133.874V77.9176H131.045V64.8549H126.18Z" fill="#1F3139"/>
<path d="M2.27509 77.9176V62.5161H7.38626C8.33933 62.5161 9.1438 62.6816 9.79967 63.0125C10.4555 63.3433 10.9526 63.8071 11.2908 64.4037C11.6341 65.0003 11.8057 65.6947 11.8057 66.4868C11.8057 67.1085 11.7032 67.66 11.4983 68.1412C11.2933 68.6226 11.0064 69.0211 10.6374 69.337C10.2737 69.6478 9.8458 69.8634 9.35388 69.9837V70.0739C9.89703 70.114 10.4017 70.2996 10.868 70.6305C11.3343 70.9563 11.7084 71.4 11.9902 71.9615C12.2771 72.523 12.4206 73.1773 12.4206 73.9243C12.4206 74.7114 12.2464 75.4058 11.898 76.0074C11.5546 76.604 11.0397 77.0728 10.3531 77.4137C9.66646 77.7496 8.81586 77.9176 7.8013 77.9176H2.27509ZM3.23583 77.0452H7.8013C8.98496 77.0452 9.89447 76.7544 10.5298 76.1729C11.1703 75.5913 11.4906 74.8418 11.4906 73.9243C11.4906 73.2776 11.3343 72.6985 11.0217 72.1871C10.7143 71.6758 10.2864 71.2722 9.73818 70.9764C9.18993 70.6756 8.55453 70.5252 7.83206 70.5252H3.23583V77.0452ZM3.23583 69.6679H7.71676C8.388 69.6679 8.95678 69.525 9.42305 69.2392C9.89447 68.9534 10.2532 68.5699 10.4991 68.0886C10.7502 67.6073 10.8757 67.0734 10.8757 66.4868C10.8757 65.5342 10.5734 64.7797 9.96876 64.2232C9.36414 63.6667 8.5033 63.3884 7.38626 63.3884H3.23583V69.6679ZM17.1648 62.5161V77.9176H16.204V62.5161H17.1648ZM34.2411 70.2168C34.2411 71.8061 33.9593 73.1949 33.3957 74.3831C32.8321 75.5662 32.0482 76.4862 31.0437 77.143C30.0446 77.7998 28.8916 78.1281 27.585 78.1281C26.2734 78.1281 25.1152 77.7998 24.111 77.143C23.1119 76.4812 22.3303 75.5587 21.7667 74.3755C21.2031 73.1873 20.9213 71.8011 20.9213 70.2168C20.9213 68.6276 21.2031 67.2413 21.7667 66.0581C22.3355 64.875 23.1195 63.955 24.1188 63.2982C25.1178 62.6364 26.2734 62.3055 27.585 62.3055C28.8916 62.3055 30.0446 62.6339 31.0437 63.2907C32.0482 63.9475 32.8321 64.8699 33.3957 66.0581C33.9593 67.2413 34.2411 68.6276 34.2411 70.2168ZM33.3035 70.2168C33.3035 68.788 33.0574 67.5497 32.5657 66.5018C32.0789 65.454 31.4049 64.6443 30.5442 64.0728C29.6834 63.4962 28.6971 63.208 27.585 63.208C26.4732 63.208 25.4869 63.4937 24.6259 64.0653C23.7651 64.6318 23.0887 65.4415 22.5968 66.4943C22.11 67.5421 21.8667 68.783 21.8667 70.2168C21.8667 71.6357 22.1076 72.8715 22.5892 73.9243C23.076 74.9721 23.7497 75.7843 24.6105 76.3609C25.4715 76.9374 26.463 77.2257 27.585 77.2257C28.6971 77.2257 29.6834 76.9399 30.5442 76.3684C31.4049 75.7918 32.0789 74.9797 32.5657 73.9318C33.0574 72.884 33.3035 71.6457 33.3035 70.2168Z" fill="#1F3139"/>
<path fill-rule="evenodd" clip-rule="evenodd" d="M71.418 4.13798C70.945 6.18779 69.7919 7.31382 69.2367 7.64762C66.6928 8.0842 64.7569 10.3006 64.7569 12.9692C64.7569 15.9513 67.1744 18.3687 70.1565 18.3687C73.1386 18.3687 75.556 15.9513 75.556 12.9692C75.556 11.3538 74.8467 9.90412 73.7225 8.91461C73.5107 7.94852 73.3478 5.9877 74.0421 4.08752C74.5805 2.61382 75.6976 1.53471 76.6182 0.888586C79.4817 1.702 82.1217 3.04669 84.4248 4.80935C81.9076 6.17652 80.1987 8.84334 80.1987 11.9093C80.1987 12.1281 80.2074 12.3449 80.2245 12.5593C78.0352 19.8019 71.8203 21.7659 68.4429 21.8003C67.8748 21.6681 67.2828 21.5982 66.6745 21.5982C62.3826 21.5982 58.9032 25.0776 58.9032 29.3696C58.9032 33.6615 62.3826 37.1409 66.6745 37.1409C70.9665 37.1409 74.4459 33.6615 74.4459 29.3696C74.4459 29.0337 74.4246 28.7028 74.3832 28.3782C76.107 21.3595 82.5425 19.7264 86.4245 19.7709C87.0181 19.9099 87.6368 19.9834 88.2728 19.9834C90.0749 19.9834 91.7391 19.393 93.0825 18.3951C93.3433 19.589 93.513 20.8169 93.5839 22.0712C93.057 21.8322 92.4719 21.6992 91.8557 21.6992C89.5425 21.6992 87.6672 23.5744 87.6672 25.8876C87.6672 28.2008 89.5425 30.076 91.8557 30.076C92.1396 30.076 92.4169 30.0478 92.6849 29.994C91.8246 32.9383 90.4015 35.6424 88.5399 37.9822C88.0538 36.7788 86.8747 35.9298 85.4973 35.9298C83.6857 35.9298 82.2171 37.3983 82.2171 39.2099C82.2171 40.5498 83.0206 41.7021 84.172 42.2113C82.3755 43.5482 80.3807 44.6337 78.2398 45.4156C78.8935 44.6768 79.2903 43.7054 79.2903 42.6413C79.2903 42.1242 79.1966 41.629 79.0253 41.1718C78.6326 38.9908 78.9771 34.941 83.0209 33.4204C84.9245 33.0259 86.3552 31.3396 86.3552 29.3191C86.3552 27.0059 84.48 25.1306 82.1668 25.1306C79.8535 25.1306 77.9783 27.0059 77.9783 29.3191C77.9783 29.8953 78.0947 30.4444 78.3052 30.944L78.2811 30.9339C78.6848 32.616 78.5435 36.4747 74.7486 38.4529L74.7674 38.466C72.6106 38.6364 70.9134 40.4407 70.9134 42.6413C70.9134 44.4494 72.059 45.9898 73.664 46.5764C72.5358 46.7434 71.3815 46.8299 70.2069 46.8299C69.1612 46.8299 68.1315 46.7613 67.1221 46.6285C67.7249 45.9029 68.0874 44.9705 68.0874 43.9534C68.0874 41.6402 66.2122 39.765 63.899 39.765C61.5858 39.765 59.7105 41.6402 59.7105 43.9534C59.7105 44.0909 59.7172 44.2269 59.7301 44.3609C58.9037 43.9468 58.1053 43.4852 57.3383 42.9797C58.2926 42.212 58.9032 41.0346 58.9032 39.7145C58.9032 38.1949 58.094 36.8643 56.883 36.1302C56.2096 35.5573 54.8053 34.021 54.5633 32.4477C54.3257 30.9032 55.1693 28.9735 55.6461 28.1543C56.4109 27.3955 56.8845 26.3436 56.8845 25.1811C56.8845 22.8679 55.0093 20.9926 52.6961 20.9926C50.3829 20.9926 48.5076 22.8679 48.5076 25.1811C48.5076 26.7239 49.3418 28.0719 50.5838 28.7987C51.409 29.5645 52.7064 31.1138 52.5952 32.4477C52.4811 33.8175 52.0292 35.7731 51.7805 36.7257C51.613 36.8902 51.4592 37.0686 51.3212 37.2591C48.4738 33.3814 46.792 28.5946 46.792 23.4149C46.792 19.2674 47.8703 15.3718 49.7619 11.9931C49.6677 12.4042 49.618 12.8323 49.618 13.2719C49.618 16.4213 52.171 18.9743 55.3203 18.9743C58.4696 18.9743 61.0226 16.4213 61.0226 13.2719C61.0226 10.1226 58.4696 7.5696 55.3203 7.5696C54.1276 7.5696 53.0205 7.93576 52.1051 8.5618C54.2443 5.95777 56.9344 3.82351 59.9972 2.33718C59.8125 2.7831 59.7105 3.272 59.7105 3.7847C59.7105 5.87496 61.405 7.56945 63.4953 7.56945C65.5855 7.56945 67.28 5.87496 67.28 3.7847C67.28 2.37866 66.5133 1.15169 65.3751 0.499089C66.9343 0.171991 68.5505 0 70.2069 0C70.6813 0 71.1524 0.0141085 71.6198 0.0419287V0.0504591C71.7544 0.53827 71.9024 2.03871 71.418 4.13798Z" fill="#6AA33D"/>
</svg>
